<?xml version="1.0" encoding="UTF-8"?>
<svg xmlns="http://www.w3.org/2000/svg" xmlns:xlink="http://www.w3.org/1999/xlink" viewBox="0 0 850 1150">
  <defs>
    <style>
      .cls-1 {
        letter-spacing: 0em;
      }

      .cls-2 {
        letter-spacing: 0em;
      }

      .cls-3 {
        stroke-width: 5px;
      }

      .cls-3, .cls-4 {
        stroke: #000;
        stroke-miterlimit: 10;
      }

      .cls-5 {
        letter-spacing: 0em;
      }

      .cls-4 {
        fill: none;
      }

      .cls-6 {
        letter-spacing: 0em;
      }

      .cls-7 {
        font-family: KaftanSerifTrial-Regular, 'Kaftan Serif - Trial';
        font-size: 96px;
      }

      .cls-8 {
        letter-spacing: 0em;
      }

      .cls-9 {
        letter-spacing: 0em;
      }

      .cls-10 {
        letter-spacing: -.02em;
      }

      .cls-11 {
        letter-spacing: 0em;
      }

      .cls-12 {
        font-family: DegularDisplay-Regular, 'Degular Display';
        font-size: 32px;
      }

      .cls-13 {
        letter-spacing: -.03em;
      }

      .cls-14 {
        letter-spacing: 0em;
      }

      .cls-15 {
        letter-spacing: 0em;
      }

      .cls-16 {
        letter-spacing: -.02em;
      }

      .cls-17 {
        letter-spacing: -.02em;
      }

      .cls-18 {
        font-family: PPEditorialNew-Italic, 'PP Editorial New';
        font-size: 434.13px;
      }

      .cls-18, .cls-19 {
        fill: #700f3b;
      }

      .cls-18, .cls-20 {
        font-style: italic;
      }

      .cls-21 {
        letter-spacing: 0em;
      }

      .cls-22 {
        letter-spacing: -.02em;
      }

      .cls-23 {
        letter-spacing: -.01em;
      }

      .cls-24 {
        letter-spacing: 0em;
      }

      .cls-20 {
        font-family: PPEditorialNew-UltralightItalic, 'PP Editorial New';
        font-size: 41.1px;
        font-weight: 100;
      }

      .cls-25 {
        letter-spacing: 0em;
      }

      .cls-26 {
        fill: url(#Degradado_sin_nombre_478);
      }

      .cls-27 {
        letter-spacing: -.02em;
      }
    </style>
    <radialGradient id="Degradado_sin_nombre_478" data-name="Degradado sin nombre 478" cx="84.83" cy="1192.9" fx="84.83" fy="1192.9" r="1229.4" gradientUnits="userSpaceOnUse">
      <stop offset=".11" stop-color="#af5d71" stop-opacity=".75"/>
      <stop offset=".12" stop-color="#b06074" stop-opacity=".76"/>
      <stop offset=".22" stop-color="#c18593" stop-opacity=".82"/>
      <stop offset=".33" stop-color="#cfa4ad" stop-opacity=".88"/>
      <stop offset=".44" stop-color="#dabdc3" stop-opacity=".92"/>
      <stop offset=".55" stop-color="#e3d1d3" stop-opacity=".96"/>
      <stop offset=".68" stop-color="#eadfdf" stop-opacity=".98"/>
      <stop offset=".81" stop-color="#ede7e6" stop-opacity="1"/>
      <stop offset="1" stop-color="#efeae9"/>
    </radialGradient>
  </defs>
  <g id="Capa_4" data-name="Capa 4">
    <rect class="cls-26" width="850" height="1150"/>
  </g>
  <g id="Capa_2" data-name="Capa 2">
    <g>
      <path class="cls-19" d="M747.93,30.9l-1.88,58.8c-.01.77-1.24.8-1.26,0l-1.88-58.8c-.08-3.37,5.1-3.4,5.02,0h0Z"/>
      <path class="cls-19" d="M742.91,173.68l1.88-58.79c0-.77,1.25-.8,1.26,0l1.88,58.79c.08,3.37-5.1,3.4-5.02,0h0Z"/>
      <path class="cls-19" d="M816.8,104.8l-58.79-1.88c-.77-.01-.8-1.24,0-1.26l58.79-1.88c3.37-.08,3.4,5.1,0,5.02h0Z"/>
      <path class="cls-19" d="M674.03,99.78l58.79,1.88c.77.01.8,1.24,0,1.26,0,0-58.79,1.88-58.79,1.88-3.37.08-3.4-5.1,0-5.02h0Z"/>
      <path class="cls-19" d="M786.56,64.69l-33.74,31.1c-.56.53-1.43-.32-.89-.89,0,0,31.08-33.76,31.08-33.76,2.33-2.48,6.05,1.2,3.55,3.55h0Z"/>
      <path class="cls-19" d="M704.27,139.89l33.74-31.1c.56-.53,1.43.32.89.89l-31.08,33.76c-2.33,2.49-6.05-1.2-3.55-3.55h0Z"/>
      <path class="cls-19" d="M783,143.43l-31.08-33.76c-.53-.56.32-1.43.89-.89l33.74,31.09c2.48,2.33-1.21,6.05-3.55,3.55h0Z"/>
      <path class="cls-19" d="M707.82,61.15l31.08,33.75c.53.56-.31,1.43-.89.89l-33.74-31.09c-2.48-2.33,1.2-6.05,3.55-3.55h0Z"/>
    </g>
    <path class="cls-19" d="M111.85,297.05c.66-2.85,2.89-5.09,5.75-5.74l16.55-1.11-16.55-1.11c-2.86-.65-5.09-2.89-5.75-5.74l-1.11-16.55-1.11,16.55c-.66,2.86-2.89,5.09-5.75,5.74l-16.55,1.11,16.55,1.11c2.86.65,5.09,2.89,5.74,5.74l1.11,16.55,1.11-16.55Z"/>
  </g>
  <g id="Capa_1" data-name="Capa 1">
    <text class="cls-7" transform="translate(33.93 140.03)"><tspan class="cls-17" x="0" y="0">P</tspan><tspan x="54.82" y="0">ersonal</tspan><tspan class="cls-16" x="398.3" y="0">i</tspan><tspan class="cls-8" x="424.12" y="0">d</tspan><tspan class="cls-24" x="483.83" y="0">a</tspan><tspan x="539.23" y="0">d</tspan></text>
    <circle cx="622.53" cy="377.07" r="7.69"/>
    <circle class="cls-4" cx="302.91" cy="414.65" r="7.69"/>
    <text class="cls-20" transform="translate(46.11 306.23)"><tspan x="0" y="0">1</tspan><tspan x="0" y="98.65">2</tspan><tspan x="0" y="197.3">3</tspan><tspan x="0" y="295.95">4</tspan><tspan x="0" y="394.6">5</tspan><tspan x="0" y="493.25">6</tspan><tspan x="0" y="591.9">7</tspan><tspan x="0" y="690.56">8</tspan><tspan x="0" y="789.21">9</tspan></text>
    <g>
      <text class="cls-12" transform="translate(146.78 716.43)"><tspan x="0" y="0">Cómo </tspan><tspan class="cls-5" x="82.82" y="0">t</tspan><tspan x="92.77" y="0">e manifiestas al mundo. </tspan><tspan class="cls-13" x="388.64" y="0">T</tspan><tspan x="403.29" y="0">u ima</tspan><tspan class="cls-1" x="470.91" y="0">g</tspan><tspan x="485.44" y="0">en, </tspan><tspan x="0" y="38.4">poder de </tspan><tspan class="cls-1" x="114.46" y="38.4">a</tspan><tspan class="cls-9" x="129.02" y="38.4">tracción y el e</tspan><tspan class="cls-1" x="296.41" y="38.4">n</tspan><tspan class="cls-25" x="311.96" y="38.4">t</tspan><tspan x="321.92" y="38.4">orno que </tspan><tspan class="cls-25" x="435.77" y="38.4">t</tspan><tspan x="445.72" y="38.4">e </tspan><tspan class="cls-11" x="465.85" y="38.4">r</tspan><tspan x="474.65" y="38.4">od</tspan><tspan class="cls-21" x="507.03" y="38.4">e</tspan><tspan x="522.27" y="38.4">a.</tspan><tspan x="0" y="153.6">Apa</tspan><tspan class="cls-11" x="48.61" y="153.6">r</tspan><tspan x="57.41" y="153.6">e</tspan><tspan class="cls-2" x="72.73" y="153.6">n</tspan><tspan x="88.29" y="153.6">tas ser inusual, i</tspan><tspan class="cls-1" x="275.04" y="153.6">nt</tspan><tspan x="300.51" y="153.6">uiti</tspan><tspan class="cls-27" x="338.07" y="153.6">v</tspan><tspan x="351.35" y="153.6">a y c</tspan><tspan class="cls-15" x="405.66" y="153.6">r</tspan><tspan class="cls-6" x="414.46" y="153.6">e</tspan><tspan class="cls-1" x="429.69" y="153.6">a</tspan><tspan x="444.25" y="153.6">ti</tspan><tspan class="cls-17" x="460.21" y="153.6">v</tspan><tspan x="473.49" y="153.6">a. </tspan><tspan class="cls-17" x="498.26" y="153.6">L</tspan><tspan x="511.13" y="153.6">as </tspan><tspan x="0" y="192">pe</tspan><tspan class="cls-21" x="31.71" y="192">r</tspan><tspan x="40.67" y="192">sonas pueden se</tspan><tspan class="cls-2" x="246.94" y="192">n</tspan><tspan x="262.49" y="192">tir una conexión inmedi</tspan><tspan class="cls-1" x="548.22" y="192">a</tspan><tspan x="562.78" y="192">ta </tspan><tspan x="0" y="230.4">co</tspan><tspan class="cls-2" x="31.71" y="230.4">n</tspan><tspan x="47.26" y="230.4">ti</tspan><tspan class="cls-1" x="63.23" y="230.4">g</tspan><tspan x="77.76" y="230.4">o, </tspan><tspan class="cls-10" x="102.88" y="230.4">y</tspan><tspan x="116.6" y="230.4">a s</tspan><tspan class="cls-21" x="149.47" y="230.4">e</tspan><tspan x="164.7" y="230.4">a de </tspan><tspan class="cls-2" x="220.76" y="230.4">a</tspan><tspan class="cls-14" x="235.32" y="230.4">tracción o de </tspan><tspan class="cls-15" x="400.38" y="230.4">r</tspan><tspan x="409.18" y="230.4">echa</tspan><tspan class="cls-23" x="470.71" y="230.4">z</tspan><tspan x="484.7" y="230.4">o.</tspan><tspan class="cls-13" x="0" y="307.2">T</tspan><tspan x="14.66" y="307.2">u au</tspan><tspan class="cls-25" x="65.7" y="307.2">t</tspan><tspan x="75.65" y="307.2">e</tspan><tspan class="cls-1" x="90.98" y="307.2">n</tspan><tspan x="106.53" y="307.2">ticidad magn</tspan><tspan class="cls-2" x="268.06" y="307.2">é</tspan><tspan x="283.2" y="307.2">tica no d</tspan><tspan class="cls-11" x="387.36" y="307.2">e</tspan><tspan x="402.43" y="307.2">ja indi</tspan><tspan class="cls-22" x="472.16" y="307.2">f</tspan><tspan x="481.85" y="307.2">e</tspan><tspan class="cls-15" x="497.18" y="307.2">r</tspan><tspan class="cls-9" x="505.98" y="307.2">e</tspan><tspan class="cls-1" x="521.31" y="307.2">n</tspan><tspan class="cls-25" x="536.86" y="307.2">t</tspan><tspan x="546.81" y="307.2">e</tspan><tspan x="0" y="345.6">a nadie.</tspan></text>
      <line class="cls-3" x1="147.63" y1="800.55" x2="478.53" y2="800.55"/>
    </g>
    <g>
      <path d="M619.85,381.54c16.03-21.55,41.88-59.32,38.28-86.8-3.96-24.75-34.55-26.74-54.78-26.6-81.63,3.95-171.85,64.26-240.45,106.38-4.01,2.41-8.03,4.83-12.2,6.97,6.89-3.85,16.84-10.79,23.6-15.2,65.23-43.63,176.71-116.98,257.43-100.62,63.7,14.61,14.45,87.42-11.87,115.87h0Z"/>
      <text class="cls-18" transform="translate(281.4 596.43)"><tspan x="0" y="0">11</tspan></text>
      <path d="M303.43,414.24c-31.79,26.95-122.59,109.15-52.19,139.3,62.93,23,236.87-64.04,294.69-99.69,9.41-5.98,19.02-11.85,27.27-19.42-8,7.85-17.42,14.09-26.71,20.29-58.34,38.42-230.77,127.58-297.07,103.39-75.78-34.14,16.24-116.84,54.01-143.88h0Z"/>
    </g>
  </g>
</svg>